<?xml version="1.0" encoding="utf-8"?>
<svg xmlns="http://www.w3.org/2000/svg" xmlns:xlink="http://www.w3.org/1999/xlink" 
    width="19px" height="19px" viewBox="0 0 600 600" xml:space="preserve">
  <g id="background">
    <rect style="fill:#FFFFFF;" width="10" height="10"/>
  </g>
  <g id="objects">
    <g>
      <ellipse style="fill:#DDDDDD;" cx="300" cy="530" rx="240" ry="13"/>
      <g>
        <path style="fill:#9BD830;" d="M540,294.004C540,426.582,432.598,534,300.04,534c-76.547,0-144.696-35.819-188.628-91.608
          c-32.145-40.829-51.331-92.369-51.331-148.388c0-132.578,107.402-239.996,239.96-239.996c24.246,0,47.662,3.6,69.718,10.29
          c0,0,7.319,15.06,29.705,11.21h0.01c19.627,8.95,37.834,20.46,54.191,34.119h0.01c27.535,22.96,49.842,51.989,64.869,85.029
          c0,0-6.149,17.37,11.048,29.22C536.361,246.055,540,269.604,540,294.004z"/>
        <path style="fill:#F4F299;" d="M504.636,244.575c-1.33,1.27-2.64,2.55-3.929,3.85c-13.628,13.64-22.566,32.669-25.066,53.439
          c-4.549,36.819-20.767,69.959-46.922,96.128c-33.064,33.059-78.887,50.539-125.729,47.869
          c-40.423-2.35-78.657-19.66-107.162-48.179c-4.389-4.47-8.619-9.09-12.618-14.11c-46.452-58.439-46.922-143.608-1.02-202.447
          c27.345-35.179,66.429-57.429,110.221-62.759c20.607-2.5,39.563-11.43,53.191-25.07c9.478-9.41,18.027-20.02,24.156-29
          c0,0,7.319,15.06,29.715,11.21c-7.719,12.36-18.367,26.63-31.705,39.969c-18.647,18.64-44.103,30.71-71.678,33.999
          c-35.324,4.31-66.979,22.41-89.145,50.849c-37.134,47.629-36.734,116.498,0.86,163.747c24.126,30.389,58.52,48.259,96.984,50.449
          c37.914,2.2,75.047-11.91,101.753-38.699c21.156-21.16,34.314-48.029,37.914-77.719c3.369-27.74,15.517-53.279,34.084-71.849
          c6.779-6.78,14.038-13,21.196-18.5C502.286,219.725,503.946,232.015,504.636,244.575z"/>
        <!-- Remaining SVG content -->
      </g>
    </g>
  </g>
</svg>